<?xml version="1.0" encoding="UTF-8" standalone="no"?>
<!-- Created with Inkscape (http://www.inkscape.org/) -->

<svg
   xmlns:dc="http://purl.org/dc/elements/1.1/"
   xmlns:cc="http://creativecommons.org/ns#"
   xmlns:rdf="http://www.w3.org/1999/02/22-rdf-syntax-ns#"
   xmlns:svg="http://www.w3.org/2000/svg"
   xmlns="http://www.w3.org/2000/svg"
   xmlns:sodipodi="http://sodipodi.sourceforge.net/DTD/sodipodi-0.dtd"
   xmlns:inkscape="http://www.inkscape.org/namespaces/inkscape"
   width="58.208336mm"
   height="15.874971mm"
   viewBox="0 0 58.208336 15.874971"
   version="1.1"
   id="svg848"
   inkscape:version="0.92.2 (5c3e80d, 2017-08-06)"
   sodipodi:docname="pastaRoller.svg">
  <defs
     id="defs842" />
  <sodipodi:namedview
     id="base"
     pagecolor="#ffffff"
     bordercolor="#666666"
     borderopacity="1.0"
     inkscape:pageopacity="0.0"
     inkscape:pageshadow="2"
     inkscape:zoom="1.5240843"
     inkscape:cx="119.57413"
     inkscape:cy="-20.962392"
     inkscape:document-units="mm"
     inkscape:current-layer="layer1"
     showgrid="false"
     inkscape:window-width="1024"
     inkscape:window-height="705"
     inkscape:window-x="-8"
     inkscape:window-y="-8"
     inkscape:window-maximized="1"
     fit-margin-top="0"
     fit-margin-left="0"
     fit-margin-right="0"
     fit-margin-bottom="0" />
  <metadata
     id="metadata845">
    <rdf:RDF>
      <cc:Work
         rdf:about="">
        <dc:format>image/svg+xml</dc:format>
        <dc:type
           rdf:resource="http://purl.org/dc/dcmitype/StillImage" />
        <dc:title></dc:title>
      </cc:Work>
    </rdf:RDF>
  </metadata>
  <g
     inkscape:label="Layer 1"
     inkscape:groupmode="layer"
     id="layer1"
     transform="translate(-102.20025,-65.284977)">
    <g
       id="g1500">
      <path
         style="fill:#3f3a31;fill-opacity:0.58585857;stroke:none;stroke-width:0.32617366px;stroke-linecap:butt;stroke-linejoin:miter;stroke-opacity:1"
         d="m 111.76688,68.238937 c 0,0 25.31184,-1.090743 38.37504,-0.5534 0.70749,0.02914 1.83548,-0.317641 2.07457,0.671408 1.07075,4.429323 1.07075,4.429323 0.73074,9.911763 -0.0468,0.755316 -0.50369,1.671226 -1.01402,1.706272 -3.59818,0.247054 -6.21421,0.759523 -9.32896,0.903307 -7.61275,0.351439 -15.24124,0.433005 -22.84918,-0.100342 -2.71237,-0.190156 -8.11215,-1.104052 -8.11215,-1.104052 0,0 -0.54223,-2.654149 -0.57446,-4.024649 -0.0586,-2.492641 0.69842,-7.410276 0.69842,-7.410276"
         id="path1412"
         inkscape:connector-curvature="0"
         sodipodi:nodetypes="cssssaacac" />
      <path
         style="fill:#3f3a31;fill-opacity:0.58585857;stroke:none;stroke-width:0.33741036px;stroke-linecap:butt;stroke-linejoin:miter;stroke-opacity:1"
         d="m 111.22608,71.233473 c 0,0 -1.01119,1.092334 -1.59513,1.276928 -0.71128,0.224845 -1.38322,0.167236 -2.16972,-0.255288 -0.85243,-0.45792 -1.71549,-1.343459 -2.60485,-1.12588 -0.52086,0.127467 -1.2658,0.526925 -1.33004,1.357957 -0.10097,1.305702 -0.23219,3.626483 0.24081,3.955248 1.13989,0.792261 2.882,-0.216358 4.38242,-1.487018 0.31071,-0.263117 0.70195,-0.222032 1.05164,-0.156722 0.61835,0.115412 1.76864,0.954208 1.76864,0.954208 z"
         id="path1414"
         inkscape:connector-curvature="0"
         sodipodi:nodetypes="casasssacc" />
      <path
         sodipodi:nodetypes="casasssacc"
         inkscape:connector-curvature="0"
         id="path1416"
         d="m 153.00596,71.018674 c 0,0 1.02917,1.272734 1.63564,1.491727 0.67025,0.242013 1.30754,0.167236 2.05099,-0.255288 0.8058,-0.45792 1.62163,-1.343459 2.46233,-1.12588 0.49235,0.127467 1.19654,0.526925 1.25727,1.357957 0.0954,1.305702 0.21948,3.626483 -0.22765,3.955248 -1.07751,0.792261 -2.72429,-0.216358 -4.14262,-1.487018 -0.2937,-0.263117 -0.66334,-0.219009 -0.99409,-0.156722 -0.67191,0.126503 -1.92748,1.061615 -1.92748,1.061615 z"
         style="fill:#3f3a31;fill-opacity:0.58585857;stroke:none;stroke-width:0.32804948px;stroke-linecap:butt;stroke-linejoin:miter;stroke-opacity:1" />
      <path
         sodipodi:nodetypes="cssssaacac"
         inkscape:connector-curvature="0"
         id="path828"
         d="m 110.70234,66.209395 c 0,0 25.31184,-1.16719 38.37504,-0.592187 0.70749,0.03118 1.83548,-0.339903 2.07457,0.718466 1.07075,4.73976 1.07075,4.73976 0.73074,10.606446 -0.0469,0.808255 -0.50369,1.788358 -1.01402,1.825859 -3.59818,0.264371 -6.21421,0.812756 -9.32896,0.966618 -7.61275,0.37607 -15.24124,0.463353 -22.84918,-0.107375 -2.71237,-0.203483 -8.11215,-1.181432 -8.11215,-1.181432 0,0 -0.54223,-2.840169 -0.57446,-4.306724 -0.0586,-2.667341 0.69842,-7.929638 0.69842,-7.929638"
         style="fill:none;stroke:#3f3a31;stroke-width:0.33741036px;stroke-linecap:butt;stroke-linejoin:miter;stroke-opacity:1" />
      <path
         sodipodi:nodetypes="casasssacc"
         inkscape:connector-curvature="0"
         id="path830"
         d="m 110.16154,70.109524 c 0,0 -1.01119,1.092334 -1.59513,1.276928 -0.71128,0.224845 -1.38322,0.167236 -2.16972,-0.255289 -0.85243,-0.45792 -1.71549,-1.343459 -2.60485,-1.125879 -0.52086,0.127467 -1.2658,0.526925 -1.33004,1.357957 -0.10097,1.305702 -0.23219,3.626483 0.24081,3.955248 1.13989,0.792261 2.882,-0.216358 4.38242,-1.487018 0.3107,-0.263117 0.70195,-0.222032 1.05163,-0.156722 0.61836,0.115412 1.76865,0.954208 1.76865,0.954208 z"
         style="fill:none;stroke:#3f3a31;stroke-width:0.33741036px;stroke-linecap:butt;stroke-linejoin:miter;stroke-opacity:1" />
      <path
         style="fill:none;stroke:#3f3a31;stroke-width:0.33741036px;stroke-linecap:butt;stroke-linejoin:miter;stroke-opacity:1"
         d="m 151.94142,69.894725 c 0,0 1.08874,1.272733 1.73032,1.491727 0.70904,0.242012 1.38322,0.167236 2.16971,-0.255289 0.85244,-0.45792 1.71549,-1.343459 2.60486,-1.125879 0.52085,0.127467 1.2658,0.526925 1.33004,1.357957 0.10097,1.305702 0.23219,3.626483 -0.24082,3.955248 -1.13988,0.792261 -2.88199,-0.216358 -4.38242,-1.487018 -0.3107,-0.263117 -0.70173,-0.219009 -1.05163,-0.156722 -0.7108,0.126503 -2.03905,1.061615 -2.03905,1.061615 z"
         id="path832"
         inkscape:connector-curvature="0"
         sodipodi:nodetypes="casasssacc" />
      <text
         transform="scale(0.97604613,1.0245417)"
         id="text841"
         y="73.444305"
         x="116.05768"
         style="font-style:normal;font-weight:normal;font-size:10.97025585px;line-height:1.25;font-family:sans-serif;letter-spacing:0px;word-spacing:0px;fill:#3f3a31;fill-opacity:1;stroke:none;stroke-width:0.27468827;stroke-miterlimit:4;stroke-dasharray:none;stroke-opacity:1"
         xml:space="preserve"><tspan
           style="font-style:normal;font-variant:normal;font-weight:normal;font-stretch:normal;font-family:'Script MT Bold';-inkscape-font-specification:'Script MT Bold, ';fill:#3f3a31;fill-opacity:1;stroke:none;stroke-width:0.27468827;stroke-miterlimit:4;stroke-dasharray:none;stroke-opacity:1"
           y="73.444305"
           x="116.05768"
           id="tspan839"
           sodipodi:role="line">Catering</tspan></text>
    </g>
  </g>
</svg>
